# xmcd CD database file
#
# Track frame offsets:
#	150
#	17418
#	34129
#	48795
#	64830
#	79637
#	93570
#	108075
#	125934
#	141215
#	157535
#	177278
#	191734
#	206377
#	222574
#	236817
#
# Disc length: 3364 seconds
#
# Revision: 1
# Processed by: cddbd v1.5.2PL0 Copyright (c) Steve Scherf et al.
# Submitted via: CDex 1.70beta2
#
DISCID=d80d2210
DTITLE=Banda Líbanos - Inconfundível - Romeu and Julieta
DYEAR=2006
DGENRE=Forro
TTITLE0=Romeu e Julieta
TTITLE1=Vai Chorar o Que Chorei
TTITLE2=Quando a Noite Cai
TTITLE3=Mistérios
TTITLE4=Teimosia
TTITLE5=Baby Vou Embora
TTITLE6=Telepatia
TTITLE7=Alivia
TTITLE8=Não Vá Embora
TTITLE9=O Que Um Homem Gosta
TTITLE10=Perdida
TTITLE11=Estou em Suas Mãos
TTITLE12=Essa Coisa Pega
TTITLE13=Vem Me Amar
TTITLE14=Metade de Nada
TTITLE15=Aprontou Comigo
EXTD=YEAR: 2006
EXTT0=
EXTT1=
EXTT2=
EXTT3=
EXTT4=
EXTT5=
EXTT6=
EXTT7=
EXTT8=
EXTT9=
EXTT10=
EXTT11=
EXTT12=
EXTT13=
EXTT14=
EXTT15=
PLAYORDER=
